<?xml version="1.0" encoding="UTF-8" standalone="no"?>
<!-- Created with Inkscape (http://www.inkscape.org/) -->

<svg
   width="5.25in"
   height="3.5in"
   viewBox="0 0 30 30"
   version="1.1"
   id="svg5"
   inkscape:version="1.1 (c4e8f9e, 2021-05-24)"
   sodipodi:docname="drawing.svg"
   xmlns:inkscape="http://www.inkscape.org/namespaces/inkscape"
   xmlns:sodipodi="http://sodipodi.sourceforge.net/DTD/sodipodi-0.dtd"
   xmlns="http://www.w3.org/2000/svg"
   xmlns:svg="http://www.w3.org/2000/svg">
  <sodipodi:namedview
     id="namedview7"
     pagecolor="#ffffff"
     bordercolor="#666666"
     borderopacity="1.0"
     inkscape:pageshadow="2"
     inkscape:pageopacity="0.0"
     inkscape:pagecheckerboard="0"
     inkscape:document-units="px"
     showgrid="false"
     inkscape:zoom="0.51847643"
     inkscape:cx="466.75217"
     inkscape:cy="561.25984"
     inkscape:window-width="1312"
     inkscape:window-height="804"
     inkscape:window-x="0"
     inkscape:window-y="25"
     inkscape:window-maximized="0"
     inkscape:current-layer="layer1"
     units="in"
     showborder="true" />
  <defs
     id="defs2" />
 <g fill="none" stroke="#e5d84e">
    <path d="M28.74,44.58a1.28,1.28,0,0,1-1-.51L15.16,27.13l-12.89,17a1.26,1.26,0,1,1-2-1.53l13.9-18.29a1.34,1.34,0,0,1,1-.5,1.24,1.24,0,0,1,1,.51L29.75,42.56a1.27,1.27,0,0,1-1,2Z" />
        <path d="M14.83,20.82h0a1.28,1.28,0,0,1-1-.52L.25,2a1.27,1.27,0,0,1,2-1.51L14.84,17.45,27.73.5a1.26,1.26,0,0,1,2,1.53L15.84,20.32A1.28,1.28,0,0,1,14.83,20.82Z" />
  </g>
</svg>




