<svg xmlns="http://www.w3.org/2000/svg" viewBox="0 0 1440 320">
  <path fill="rgb(35, 119, 189)" fill-opacity="1" d="M0,256L16,245.3C32,235,64,213,96,170.7C128,128,160,64,192,32C224,0,256,0,288,37.3C320,75,352,149,384,202.7C416,256,448,288,480,288C512,288,544,256,576,240C608,224,640,224,672,229.3C704,235,736,245,768,256C800,267,832,277,864,245.3C896,213,928,139,960,128C992,117,1024,171,1056,202.7C1088,235,1120,245,1152,234.7C1184,224,1216,192,1248,192C1280,192,1312,224,1344,240C1376,256,1408,256,1424,256L1440,256L1440,320L1424,320C1408,320,1376,320,1344,320C1312,320,1280,320,1248,320C1216,320,1184,320,1152,320C1120,320,1088,320,1056,320C1024,320,992,320,960,320C928,320,896,320,864,320C832,320,800,320,768,320C736,320,704,320,672,320C640,320,608,320,576,320C544,320,512,320,480,320C448,320,416,320,384,320C352,320,320,320,288,320C256,320,224,320,192,320C160,320,128,320,96,320C64,320,32,320,16,320L0,320Z"></path>
</svg>