<?xml version="1.0" standalone="no"?>
<svg xmlns:xlink="http://www.w3.org/1999/xlink" id="wave" style="transform:rotate(0deg); transition: 0.3s" viewBox="0 0 1440 490" version="1.1" xmlns="http://www.w3.org/2000/svg"><defs><linearGradient id="sw-gradient-0" x1="0" x2="0" y1="1" y2="0"><stop stop-color="rgba(33.212, 117.98, 189.429, 1)" offset="0%"/><stop stop-color="rgba(131.27, 167.924, 221.304, 1)" offset="100%"/></linearGradient></defs><path style="transform:translate(0, 0px); opacity:1" fill="url(#sw-gradient-0)" d="M0,196L40,228.7C80,261,160,327,240,302.2C320,278,400,163,480,138.8C560,114,640,180,720,236.8C800,294,880,343,960,334.8C1040,327,1120,261,1200,212.3C1280,163,1360,131,1440,130.7C1520,131,1600,163,1680,179.7C1760,196,1840,196,1920,204.2C2000,212,2080,229,2160,261.3C2240,294,2320,343,2400,310.3C2480,278,2560,163,2640,138.8C2720,114,2800,180,2880,187.8C2960,196,3040,147,3120,122.5C3200,98,3280,98,3360,89.8C3440,82,3520,65,3600,114.3C3680,163,3760,278,3840,343C3920,408,4000,425,4080,375.7C4160,327,4240,212,4320,163.3C4400,114,4480,131,4560,171.5C4640,212,4720,278,4800,261.3C4880,245,4960,147,5040,122.5C5120,98,5200,147,5280,155.2C5360,163,5440,131,5520,171.5C5600,212,5680,327,5720,383.8L5760,441L5760,490L5720,490C5680,490,5600,490,5520,490C5440,490,5360,490,5280,490C5200,490,5120,490,5040,490C4960,490,4880,490,4800,490C4720,490,4640,490,4560,490C4480,490,4400,490,4320,490C4240,490,4160,490,4080,490C4000,490,3920,490,3840,490C3760,490,3680,490,3600,490C3520,490,3440,490,3360,490C3280,490,3200,490,3120,490C3040,490,2960,490,2880,490C2800,490,2720,490,2640,490C2560,490,2480,490,2400,490C2320,490,2240,490,2160,490C2080,490,2000,490,1920,490C1840,490,1760,490,1680,490C1600,490,1520,490,1440,490C1360,490,1280,490,1200,490C1120,490,1040,490,960,490C880,490,800,490,720,490C640,490,560,490,480,490C400,490,320,490,240,490C160,490,80,490,40,490L0,490Z"/></svg>